<?xml version="1.0" encoding="UTF-8"?>
<svg version="1.1" xmlns="http://www.w3.org/2000/svg" width="125" height="125">
<path d="M0 0 C41.25 0 82.5 0 125 0 C125 41.25 125 82.5 125 125 C83.75 125 42.5 125 0 125 C0 83.75 0 42.5 0 0 Z " fill="#052759" transform="translate(0,0)"/>
<path d="M0 0 C1.78515625 1.2890625 1.78515625 1.2890625 3.78515625 3.2890625 C3.93033369 6.1984183 3.97146421 9.0090085 3.91015625 11.9140625 C3.90113281 12.71585938 3.89210937 13.51765625 3.8828125 14.34375 C3.85921848 16.32564773 3.8233469 18.30739231 3.78515625 20.2890625 C2.46515625 20.2890625 1.14515625 20.2890625 -0.21484375 20.2890625 C-0.19421875 21.0934375 -0.17359375 21.8978125 -0.15234375 22.7265625 C-0.21484375 25.2890625 -0.21484375 25.2890625 -1.21484375 26.2890625 C-3.37965172 26.3879919 -5.5477816 26.4187735 -7.71484375 26.4140625 C-8.90078125 26.41664062 -10.08671875 26.41921875 -11.30859375 26.421875 C-14.21484375 26.2890625 -14.21484375 26.2890625 -15.21484375 25.2890625 C-15.28689886 23.60297284 -15.29870443 21.91405591 -15.27734375 20.2265625 C-15.26832031 19.30746094 -15.25929687 18.38835938 -15.25 17.44140625 C-15.23839844 16.73113281 -15.22679687 16.02085938 -15.21484375 15.2890625 C-17.34062282 15.3758901 -19.46553956 15.4840576 -21.58984375 15.6015625 C-22.77320312 15.65957031 -23.9565625 15.71757813 -25.17578125 15.77734375 C-26.17867187 15.94621094 -27.1815625 16.11507812 -28.21484375 16.2890625 C-31.07026951 20.57220113 -30.69510492 24.26537819 -30.21484375 29.2890625 C-29.33821822 33.25966051 -27.96379101 35.7227853 -24.65234375 38.2265625 C-18.78205123 40.04101655 -12.99844278 40.36724205 -7.33984375 37.7265625 C-4.21484375 36.2890625 -4.21484375 36.2890625 -2.25390625 36.484375 C0.26839252 37.47976494 1.64890889 38.78791938 3.53515625 40.7265625 C4.14875 41.34402344 4.76234375 41.96148437 5.39453125 42.59765625 C6.78515625 44.2890625 6.78515625 44.2890625 6.78515625 46.2890625 C8.10515625 46.2890625 9.42515625 46.2890625 10.78515625 46.2890625 C10.76453125 45.4846875 10.74390625 44.6803125 10.72265625 43.8515625 C10.78515625 41.2890625 10.78515625 41.2890625 11.78515625 40.2890625 C11.94301933 38.43731544 12.03622981 36.5799714 12.1015625 34.72265625 C12.14345703 33.59794922 12.18535156 32.47324219 12.22851562 31.31445312 C12.26783203 30.13044922 12.30714844 28.94644531 12.34765625 27.7265625 C12.41243164 25.94475586 12.41243164 25.94475586 12.47851562 24.12695312 C12.58499171 21.18111466 12.68700466 18.2351882 12.78515625 15.2890625 C10.80515625 15.2890625 8.82515625 15.2890625 6.78515625 15.2890625 C6.78515625 10.9990625 6.78515625 6.7090625 6.78515625 2.2890625 C8.10515625 2.2890625 9.42515625 2.2890625 10.78515625 2.2890625 C11.11515625 0.6390625 11.44515625 -1.0109375 11.78515625 -2.7109375 C27.95515625 -2.7109375 44.12515625 -2.7109375 60.78515625 -2.7109375 C60.78515625 3.2290625 60.78515625 9.1690625 60.78515625 15.2890625 C59.13515625 15.6190625 57.48515625 15.9490625 55.78515625 16.2890625 C55.78515625 18.2690625 55.78515625 20.2490625 55.78515625 22.2890625 C52.81515625 22.2890625 49.84515625 22.2890625 46.78515625 22.2890625 C46.78515625 25.2590625 46.78515625 28.2290625 46.78515625 31.2890625 C45.13515625 31.2890625 43.48515625 31.2890625 41.78515625 31.2890625 C41.78515625 33.2690625 41.78515625 35.2490625 41.78515625 37.2890625 C39.14515625 37.2890625 36.50515625 37.2890625 33.78515625 37.2890625 C33.78515625 38.2790625 33.78515625 39.2690625 33.78515625 40.2890625 C39.06515625 40.2890625 44.34515625 40.2890625 49.78515625 40.2890625 C49.78515625 38.3090625 49.78515625 36.3290625 49.78515625 34.2890625 C53.74515625 34.2890625 57.70515625 34.2890625 61.78515625 34.2890625 C61.78515625 40.5590625 61.78515625 46.8290625 61.78515625 53.2890625 C60.13515625 53.2890625 58.48515625 53.2890625 56.78515625 53.2890625 C56.78515625 55.2690625 56.78515625 57.2490625 56.78515625 59.2890625 C49.68270626 59.31433037 42.58026777 59.33189451 35.4777832 59.34399414 C33.05948453 59.34903599 30.64118892 59.35586928 28.22290039 59.36450195 C24.75536342 59.37657407 21.28786659 59.38229213 17.8203125 59.38671875 C16.73178482 59.39188004 15.64325714 59.39704132 14.52174377 59.40235901 C13.02030067 59.40247231 13.02030067 59.40247231 11.48852539 59.40258789 C10.15948936 59.40591881 10.15948936 59.40591881 8.80360413 59.40931702 C6.78515625 59.2890625 6.78515625 59.2890625 5.78515625 58.2890625 C5.71289123 56.43618748 5.70134405 54.58072372 5.72265625 52.7265625 C5.73167969 51.71464844 5.74070313 50.70273438 5.75 49.66015625 C5.76160156 48.87769531 5.77320313 48.09523437 5.78515625 47.2890625 C5.14578125 47.9903125 4.50640625 48.6915625 3.84765625 49.4140625 C-3.98912158 57.1625386 -11.77502089 60.21909686 -22.65234375 60.6015625 C-30.72018268 60.40973976 -37.73700155 58.68953007 -43.68359375 53.0234375 C-50.66894093 45.11146263 -52.72713277 36.96425754 -52.5234375 26.50390625 C-51.46550343 15.48264374 -43.38426954 7.54253503 -35.21484375 0.765625 C-25.49803316 -6.40811406 -10.19125391 -5.97840281 0 0 Z " fill="#FCFDFD" transform="translate(59.21484375,35.7109375)"/>
<path d="M0 0 C0.66 0.33 1.32 0.66 2 1 C1.67644531 1.68578125 1.35289063 2.3715625 1.01953125 3.078125 C-1.50058616 10.30053045 -1.01318157 19.79359153 1.83984375 26.90625 C5.66523094 33.80997908 10.68566919 38.8926698 18.23828125 41.4140625 C27.91151136 43.4663744 39.07871349 42.46064325 48 38 C45.93230157 42.88350886 42.65108843 44.73058961 38 47 C28.38899831 50.41997323 17.30165353 50.21356955 8 46 C1.43322411 41.89096479 -2.41067089 35.85979926 -5.3125 28.8125 C-7.31025299 17.73405159 -6.22524812 9.33787218 0 0 Z " fill="#57A1ED" transform="translate(13,47)"/>
<path d="M0 0 C0.33 0 0.66 0 1 0 C1 3.96 1 7.92 1 12 C15.85 12 30.7 12 46 12 C46 13.98 46 15.96 46 18 C38.89755001 18.02526787 31.79511152 18.04283201 24.69262695 18.05493164 C22.27432828 18.05997349 19.85603267 18.06680678 17.43774414 18.07543945 C13.97020717 18.08751157 10.50271034 18.09322963 7.03515625 18.09765625 C5.94662857 18.10281754 4.85810089 18.10797882 3.73658752 18.11329651 C2.23514442 18.11340981 2.23514442 18.11340981 0.70336914 18.11352539 C-0.62566689 18.11685631 -0.62566689 18.11685631 -1.98155212 18.12025452 C-4 18 -4 18 -5 17 C-5.28745638 15.02845571 -5.50584123 13.04659126 -5.6875 11.0625 C-5.79449219 9.98097656 -5.90148437 8.89945313 -6.01171875 7.78515625 C-6 5 -6 5 -4 3 C-4 3.66 -4 4.32 -4 5 C-2.68 5 -1.36 5 0 5 C0 3.35 0 1.7 0 0 Z " fill="#5DA5EE" transform="translate(70,77)"/>
<path d="M0 0 C0.33 0 0.66 0 1 0 C1 3.63 1 7.26 1 11 C2.65 11 4.3 11 6 11 C7.88319268 12.88319268 7.13054285 16.11930137 7.1328125 18.625 C7.13376923 19.28709473 7.13472595 19.94918945 7.13571167 20.63134766 C7.13639326 22.03352961 7.13454042 23.4357147 7.13037109 24.83789062 C7.12502246 26.99095713 7.1303167 29.14381502 7.13671875 31.296875 C7.13605796 32.65625046 7.13477679 34.0156258 7.1328125 35.375 C7.13168457 36.62023437 7.13055664 37.86546875 7.12939453 39.1484375 C7 42 7 42 6 43 C4.35 43 2.7 43 1 43 C1.33 34.42 1.66 25.84 2 17 C0.02 17 -1.96 17 -4 17 C-4 12.71 -4 8.42 -4 4 C-2.68 4 -1.36 4 0 4 C0 2.68 0 1.36 0 0 Z " fill="#60A7F1" transform="translate(70,34)"/>
<path d="M0 0 C0 2.97 0 5.94 0 9 C4.62 9 9.24 9 14 9 C12.68 9.33 11.36 9.66 10 10 C10.020625 10.804375 10.04125 11.60875 10.0625 12.4375 C10 15 10 15 9 16 C6.83519203 16.0989294 4.66706215 16.129711 2.5 16.125 C1.3140625 16.12757812 0.128125 16.13015625 -1.09375 16.1328125 C-4 16 -4 16 -5 15 C-5.14257189 11.66381769 -5.04228157 8.34024394 -5 5 C-9.29 5 -13.58 5 -18 5 C-13.46586082 -1.71724322 -7.50434409 -0.4944297 0 0 Z " fill="#599FE7" transform="translate(49,46)"/>
<path d="M0 0 C1.39456452 0.00667256 2.78911118 0.01863093 4.18359375 0.03515625 C4.89451172 0.03966797 5.60542969 0.04417969 6.33789062 0.04882812 C8.09899388 0.06064761 9.86005411 0.07858362 11.62109375 0.09765625 C11.62109375 2.07765625 11.62109375 4.05765625 11.62109375 6.09765625 C13.93109375 6.09765625 16.24109375 6.09765625 18.62109375 6.09765625 C18.62109375 8.07765625 18.62109375 10.05765625 18.62109375 12.09765625 C15.65109375 12.09765625 12.68109375 12.09765625 9.62109375 12.09765625 C9.62109375 11.10765625 9.62109375 10.11765625 9.62109375 9.09765625 C8.23083984 9.11505859 8.23083984 9.11505859 6.8125 9.1328125 C5.61496094 9.14183594 4.41742188 9.15085937 3.18359375 9.16015625 C1.98863281 9.17175781 0.79367188 9.18335938 -0.4375 9.1953125 C-3.37890625 9.09765625 -3.37890625 9.09765625 -4.37890625 8.09765625 C-4.50390625 4.59765625 -4.50390625 4.59765625 -4.37890625 1.09765625 C-3.37890625 0.09765625 -3.37890625 0.09765625 0 0 Z " fill="#5CA4EE" transform="translate(96.37890625,45.90234375)"/>
<path d="M0 0 C2.05078125 0.03255208 4.1015625 0.06510417 6.15234375 0.09765625 C6.15234375 2.07765625 6.15234375 4.05765625 6.15234375 6.09765625 C3.51234375 6.09765625 0.87234375 6.09765625 -1.84765625 6.09765625 C-2.17765625 6.75765625 -2.50765625 7.41765625 -2.84765625 8.09765625 C-2.89007348 5.7647085 -2.88858562 3.43063058 -2.84765625 1.09765625 C-1.84765625 0.09765625 -1.84765625 0.09765625 0 0 Z " fill="#67AAEE" transform="translate(94.84765625,66.90234375)"/>
<path d="M0 0 C3.3 0 6.6 0 10 0 C10 0.99 10 1.98 10 3 C6.7 3 3.4 3 0 3 C0 2.01 0 1.02 0 0 Z " fill="#143666" transform="translate(93,52)"/>
<path d="M0 0 C0.33 0.66 0.66 1.32 1 2 C3.02463255 2.65213292 3.02463255 2.65213292 5 3 C3.68 3 2.36 3 1 3 C1 6.63 1 10.26 1 14 C0.67 14 0.34 14 0 14 C-0.19456705 12.04235617 -0.38044247 10.08384679 -0.5625 8.125 C-0.66691406 7.03445312 -0.77132812 5.94390625 -0.87890625 4.8203125 C-1 2 -1 2 0 0 Z " fill="#3B6FAC" transform="translate(65,80)"/>
<path d="M0 0 C0.66 0.33 1.32 0.66 2 1 C-0.625 6.75 -0.625 6.75 -4 9 C-2.94124926 5.59687262 -1.99097846 2.98646769 0 0 Z " fill="#4E95DF" transform="translate(13,47)"/>
</svg>
